
<?xml version="1.0" encoding="iso-8859-1"?>
<!-- Generator: Adobe Illustrator 19.0.0, SVG Export Plug-In . SVG Version: 6.00 Build 0)  -->
<svg version="1.1" id="Capa_1" xmlns="http://www.w3.org/2000/svg" xmlns:xlink="http://www.w3.org/1999/xlink" x="0px" y="0px"
	 viewBox="0 0 411.2 411.2" style="enable-background:new 0 0 411.2 411.2;" xml:space="preserve">
<path style="fill:#424953;" d="M240,247.999c0,47.2,38.4,85.6,85.6,85.6s85.6-38.4,85.6-85.6s-38.4-85.6-85.6-85.6
	c-12,0-23.2,2.4-33.6,6.8l-14.4-28v-44.8c0-2.8-1.6-5.2-4-6l-34-12.4c-3.2-1.2-6.8,0.4-8,3.6c-1.2,3.2,0.4,6.8,3.6,8l30,11.2v36
	h-124v-12.4h15.2c3.6,0,6.4-2.8,6.4-6.4c0-3.6-2.8-6.4-6.4-6.4h-39.6c-3.6,0-6.4,2.8-6.4,6.4c0,3.6,2.8,6.4,6.4,6.4h11.6v17.2
	l-12.4,26.4c-9.6-3.6-19.6-5.6-30.4-5.6c-47.2,0-85.6,38.4-85.6,85.6s38.4,85.6,85.6,85.6c44.8,0,82-34.8,85.2-79.2h27.6
	c2,0,4-1.2,5.2-2.8l66.8-96.4l10.4,20C256.4,190.399,240,217.199,240,247.999z M85.6,320.799c-40,0-72.8-32.8-72.8-72.8
	s32.8-72.8,72.8-72.8c8.8,0,17.2,1.6,25.2,4.4l-30.8,65.6l0,0v0.4c-0.4,0.8-0.4,1.2-0.4,2c0,0,0,0,0,0.4l0,0c0,0.8,0,1.6,0.4,2
	c0,0,0,0.4,0.4,0.4c0,0.4,0,0.4,0.4,0.8s0.4,0.8,0.8,0.8c0,0,0,0,0,0.4c0.4,0.4,1.2,0.8,1.6,1.2h0.4c0.8,0.4,1.6,0.4,2,0.4H158
	C154.8,291.599,123.6,320.799,85.6,320.799z M122,185.199c20,11.6,34,32.4,36,56.4H95.6L122,185.199z M195.2,241.599h-24.4
	c-2-29.2-18.8-54.4-43.2-68l11.2-24h120L195.2,241.599z M325.6,175.199c40,0,72.8,32.8,72.8,72.8c0,40-32.8,72.8-72.8,72.8
	s-72.8-32.8-72.8-72.8c0-25.6,13.6-48.4,33.6-61.2l33.6,64.4c1.2,2,3.2,3.6,5.6,3.6c0.8,0,2-0.4,2.8-0.8c3.2-1.6,4.4-5.6,2.8-8.4
	l-33.6-64.8C306.4,177.199,315.6,175.199,325.6,175.199z"/>
<g>
</g>
<g>
</g>
<g>
</g>
<g>
</g>
<g>
</g>
<g>
</g>
<g>
</g>
<g>
</g>
<g>
</g>
<g>
</g>
<g>
</g>
<g>
</g>
<g>
</g>
<g>
</g>
<g>
</g>
</svg>
